# xmcd
#
# Track frame offsets: 
#        150
#        14153
#        28339
#
# Disc length: 669 seconds
#
# Revision: 0
# Processed by: cddbd v1.5.2PL0 Copyright (c) Steve Scherf et al.
# Submitted via: ExactAudioCopyFreeDBPlugin 1.0
#
DISCID=24029b03
DTITLE=Simone - Solang wir lieben
DYEAR=2001
DGENRE=Schlager
TTITLE0=Solang wir lieben (Radio Version)
TTITLE1=Solang wir lieben (Dance Version)
TTITLE2=Solang wir lieben (Dance Extended Version)
EXTD=
EXTT0=
EXTT1=
EXTT2=
PLAYORDER=
